<svg width="41" height="36" viewBox="0 0 41 36" fill="none" xmlns="http://www.w3.org/2000/svg">
<g clip-path="url(#clip0_4205_5435)">
<path fill-rule="evenodd" clip-rule="evenodd" d="M21.0104 32.0364C21.0427 32.0224 21.0745 32.007 21.1058 31.9902L24.3938 30.2304C27.9661 28.3185 32.2526 28.3185 35.8249 30.2304C38.1689 31.4849 41 29.7804 41 27.1145V6.68577C41 5.26128 40.2177 3.95276 38.9651 3.28241L37.9475 2.73787C33.0487 0.116021 27.1701 0.116021 22.2712 2.73787L20.5 3.68577L18.7288 2.73787C13.8299 0.116021 7.95128 0.116021 3.05239 2.73787L2.03493 3.28241C0.782389 3.95276 0 5.26128 0 6.68577V27.1145C0 29.7804 2.83101 31.4849 5.17507 30.2304C8.7473 28.3185 13.0339 28.3185 16.6062 30.2304L19.8942 31.9902M21.7812 5.91435V28.7143L23.1879 27.9615C27.5138 25.6463 32.7049 25.6463 37.0308 27.9615C37.668 28.3025 38.4375 27.8392 38.4375 27.1145V6.68577C38.4375 6.21093 38.1768 5.77477 37.7592 5.55131L36.7418 5.00677C32.5965 2.78829 27.6222 2.78829 23.477 5.00677L21.7812 5.91435ZM19.2188 5.91435L17.523 5.00677C13.3778 2.78829 8.40349 2.78829 4.25827 5.00677L3.24081 5.55131C2.8233 5.77477 2.5625 6.21093 2.5625 6.68577V27.1145C2.5625 27.8392 3.33203 28.3025 3.96918 27.9615C8.29508 25.6463 13.4862 25.6463 17.8121 27.9615L19.2188 28.7143V5.91435Z" fill="#4252AF"/>
<path d="M19.8965 31.9922C20.244 32.1781 20.6542 32.1921 21.0099 32.0369L19.8965 31.9922Z" fill="#4252AF"/>
<path d="M7.15822 9.20804C8.25325 9.20804 9.34079 9.3497 10.3985 9.6293C11.5402 9.93871 12.6334 10.4121 13.6389 11.0366C13.9877 11.2547 14.4485 11.1465 14.6648 10.7961C14.8831 10.4457 14.7749 9.98717 14.4242 9.7691C12.2416 8.41403 9.72135 7.70199 7.15243 7.71502C6.74017 7.71502 6.40625 8.04867 6.40625 8.4606C6.40625 8.87253 6.74017 9.20618 7.15243 9.20618L7.15822 9.20804Z" fill="#4252AF"/>
<path d="M7.15822 13.0655C8.25325 13.0655 9.34079 13.2071 10.3985 13.4867C11.5402 13.7961 12.6334 14.2696 13.6389 14.894C13.9877 15.1121 14.4485 15.004 14.6648 14.6535C14.8831 14.3031 14.7749 13.8446 14.4242 13.6265C12.2416 12.2715 9.72135 11.5594 7.15243 11.5724C6.74017 11.5724 6.40625 11.9061 6.40625 12.318C6.40625 12.73 6.74017 13.0636 7.15243 13.0636L7.15822 13.0655Z" fill="#4252AF"/>
<path d="M7.15822 16.9209C8.25325 16.9209 9.34079 17.0626 10.3985 17.3422C11.5402 17.6516 12.6334 18.125 13.6389 18.7495C13.9877 18.9675 14.4485 18.8594 14.6648 18.509C14.8831 18.1586 14.7749 17.7001 14.4242 17.482C12.2416 16.1269 9.72135 15.4149 7.15243 15.4279C6.74017 15.4279 6.40625 15.7616 6.40625 16.1735C6.40625 16.5854 6.74017 16.9191 7.15243 16.9191L7.15822 16.9209Z" fill="#4252AF"/>
<path d="M7.15822 20.7784C8.25325 20.7784 9.34079 20.92 10.3985 21.1996C11.5402 21.509 12.6334 21.9825 13.6389 22.6069C13.9877 22.825 14.4485 22.7169 14.6648 22.3664C14.8831 22.016 14.7749 21.5575 14.4242 21.3394C12.2416 19.9843 9.72135 19.2723 7.15243 19.2853C6.74017 19.2853 6.40625 19.619 6.40625 20.0309C6.40625 20.4428 6.74017 20.7765 7.15243 20.7765L7.15822 20.7784Z" fill="#4252AF"/>
<path d="M26.3737 11.1464C26.5136 11.1464 26.6498 11.1091 26.7673 11.0345C27.7728 10.4101 28.8641 9.93666 30.0077 9.62726C31.0635 9.34767 32.1529 9.20601 33.2461 9.20601C33.6546 9.19855 33.9848 8.86863 33.9923 8.46043C33.9923 8.04849 33.6602 7.7167 33.2498 7.71484C32.0223 7.71484 30.8005 7.87328 29.614 8.18829C28.3306 8.53498 27.1068 9.0681 25.9782 9.76892C25.6947 9.94414 25.5622 10.2852 25.6536 10.6058C25.7451 10.9264 26.0379 11.1464 26.3718 11.1464H26.3737Z" fill="#4252AF"/>
<path d="M26.3737 15.0038C26.5136 15.0038 26.6498 14.9665 26.7673 14.892C27.7728 14.2675 28.8641 13.7941 30.0077 13.4847C31.0635 13.2051 32.1529 13.0634 33.2461 13.0634C33.6546 13.056 33.9848 12.7261 33.9923 12.3178C33.9923 11.9059 33.6602 11.5741 33.2498 11.5723C32.0223 11.5723 30.8005 11.7307 29.614 12.0457C28.3306 12.3924 27.1068 12.9255 25.9782 13.6263C25.6947 13.8016 25.5622 14.1426 25.6536 14.4633C25.7451 14.7839 26.0379 15.0038 26.3718 15.0038H26.3737Z" fill="#4252AF"/>
<path d="M26.3737 18.8593C26.5136 18.8593 26.6498 18.822 26.7673 18.7474C27.7728 18.123 28.8641 17.6495 30.0077 17.3402C31.0635 17.0606 32.1529 16.9189 33.2461 16.9189C33.6546 16.9114 33.9848 16.5815 33.9923 16.1733C33.9923 15.7614 33.6602 15.4296 33.2498 15.4277C32.0223 15.4277 30.8005 15.5862 29.614 15.9012C28.3306 16.2479 27.1068 16.781 25.9782 17.4818C25.6947 17.657 25.5622 17.9981 25.6536 18.3187C25.7451 18.6393 26.0379 18.8593 26.3718 18.8593H26.3737Z" fill="#4252AF"/>
<path d="M26.3737 22.7167C26.5136 22.7167 26.6498 22.6794 26.7673 22.6048C27.7728 21.9804 28.8641 21.507 30.0077 21.1976C31.0635 20.918 32.1529 20.7763 33.2461 20.7763C33.6546 20.7689 33.9848 20.4389 33.9923 20.0307C33.9923 19.6188 33.6602 19.287 33.2498 19.2852C32.0223 19.2852 30.8005 19.4436 29.614 19.7586C28.3306 20.1053 27.1068 20.6384 25.9782 21.3392C25.6947 21.5144 25.5622 21.8555 25.6536 22.1761C25.7451 22.4968 26.0379 22.7167 26.3718 22.7167H26.3737Z" fill="#4252AF"/>
</g>
<defs>
<clipPath id="clip0_4205_5435">
<rect width="41" height="36" fill="white"/>
</clipPath>
</defs>
</svg>
