<svg width="37" height="36" viewBox="0 0 37 36" fill="none" xmlns="http://www.w3.org/2000/svg">
<g clip-path="url(#clip0_4205_5466)">
<path d="M33.8218 13.2736C32.6748 13.2736 31.7128 14.1827 31.7128 15.3463V18.3645C31.7128 25.5281 25.7928 31.3463 18.5038 31.3463C11.2148 31.3463 5.29477 25.5281 5.29477 18.3645C5.29477 11.2372 11.2148 5.41902 18.4668 5.41902H21.2788C22.4258 5.41902 23.3878 4.50993 23.3878 3.34629C23.3878 2.18266 22.4628 1.27357 21.2788 1.27357H18.5038C8.88377 1.2372 1.11377 8.90993 1.11377 18.3645C1.11377 27.7827 8.92077 35.4554 18.5038 35.4554C28.0868 35.4554 35.8938 27.7827 35.8938 18.3645V15.3463C35.8938 14.219 34.9688 13.2736 33.8218 13.2736Z" fill="#4252AF"/>
<path d="M14.838 13.2727C14.246 12.5818 13.21 12.4364 12.396 12.9091C11.508 13.4546 11.212 14.6182 11.767 15.4909L16.392 23.3455C16.577 23.6364 16.836 23.8909 17.132 24.1091C18.279 24.8727 19.833 24.5818 20.647 23.4546L20.721 23.3455L34.041 3.81819C34.596 3.01819 34.448 1.89092 33.634 1.27273C32.82 0.618189 31.599 0.763643 30.97 1.60001L18.464 17.3091L14.838 13.2727Z" fill="#4252AF"/>
</g>
<defs>
<clipPath id="clip0_4205_5466">
<rect width="37" height="36" fill="white"/>
</clipPath>
</defs>
</svg>
