<svg width="62" height="41" viewBox="0 0 62 41" fill="none" xmlns="http://www.w3.org/2000/svg">
<rect width="40" height="40" rx="20" fill="#D2E1FD"/>
<path d="M26.1659 3.52C21.3659 7.68 18.6459 12.32 18.6459 15.36C18.6459 16.8 19.4459 17.92 21.3659 17.92C27.6059 17.92 31.9259 22.56 31.9259 28.64C31.9259 35.36 26.9659 40 20.2459 40C12.0859 40 8.08594 33.6 8.08594 25.28C8.08594 14.08 15.4459 5.12 22.9659 0L26.1659 3.52ZM34.0184 25.28C34.0184 14.08 41.3784 5.12 48.8984 0L52.0984 3.52C47.2984 7.68 44.5784 12.32 44.5784 15.36C44.5784 16.8 45.3784 17.92 47.2984 17.92C53.5384 17.92 57.8584 22.56 57.8584 28.64C57.8584 35.36 52.8984 40 46.1784 40C38.0184 40 34.0184 33.6 34.0184 25.28Z" fill="#202124"/>
</svg>
